<svg xmlns="http://www.w3.org/2000/svg" viewBox="0 0 560 320" role="img" aria-labelledby="title desc"><title id="title">디지털 인프라 생태계</title><desc id="desc">GPU 중심에서 저장장치와 클라우드로 뻗는 밝은 숲속 인포그래픽</desc><defs><linearGradient id="b" x2="1" y2="1"><stop stop-color="#ffd899"/><stop offset=".5" stop-color="#f8efb2"/><stop offset="1" stop-color="#9ae1d1"/></linearGradient></defs><rect width="560" height="320" rx="28" fill="url(#b)"/><path d="M0 236Q120 182 244 236T560 211V320H0Z" fill="#65bd7a"/><g fill="none" stroke="#fff" stroke-width="5" stroke-dasharray="6 9"><path d="M280 151 123 85M280 151l157-66M280 151l-139 116M280 151l278 90"/></g><g transform="translate(214 84)"><rect width="132" height="132" rx="24" fill="#557cc9" stroke="#fff" stroke-width="8"/><rect x="31" y="31" width="70" height="70" rx="10" fill="#ffd867"/><path d="M44 66h44M66 44v44" stroke="#557cc9" stroke-width="9" stroke-linecap="round"/></g><g font-family="system-ui,sans-serif" font-weight="800" text-anchor="middle"><g transform="translate(123 74)"><circle r="43" fill="#ed7e6d" stroke="#fff" stroke-width="6"/><text y="7" font-size="20" fill="#fff">NAND</text></g><g transform="translate(437 74)"><circle r="43" fill="#7d6ec8" stroke="#fff" stroke-width="6"/><text y="7" font-size="20" fill="#fff">DRAM</text></g><g transform="translate(117 250)"><circle r="43" fill="#51a9b7" stroke="#fff" stroke-width="6"/><text y="7" font-size="20" fill="#fff">HDD</text></g><g transform="translate(443 250)"><circle r="43" fill="#ef9b4c" stroke="#fff" stroke-width="6"/><text y="7" font-size="20" fill="#fff">Cloud</text></g><text x="280" y="240" font-size="19" fill="#345663">GPU</text></g></svg>
